<svg width="28" height="28" viewBox="0 0 28 28" fill="none" xmlns="http://www.w3.org/2000/svg">
<path d="M23.7266 12.6156H17.2813V7.14428H15.1719C15.8248 6.29645 16.1756 5.26462 16.1711 4.20531C16.1711 2.63001 15.4048 1.14984 14.1712 0.34253L13.6478 0L13.1245 0.34253C11.8906 1.14995 11.1245 2.63007 11.1245 4.20531C11.1201 5.26463 11.4711 6.29645 12.1241 7.14423H9.78126V12.6156H4.27344C3.37243 12.6166 2.50862 12.9652 1.87151 13.5849C1.2344 14.2046 0.876024 15.0448 0.875 15.9212V26.1762C0.875558 26.6598 1.07328 27.1233 1.42479 27.4652C1.7763 27.8072 2.25289 27.9995 2.75 28H25.25C25.7471 27.9995 26.2237 27.8072 26.5752 27.4652C26.9267 27.1233 27.1245 26.6598 27.125 26.1762V15.9213C27.124 15.0449 26.7656 14.2046 26.1285 13.5849C25.4914 12.9652 24.6276 12.6166 23.7266 12.6156V12.6156ZM13.6478 2.32692C14.0574 2.82185 14.2961 3.49335 14.2961 4.20537C14.2961 4.91738 14.0574 5.58894 13.6478 6.08381C13.2383 5.58894 12.9995 4.91738 12.9995 4.20531C12.9995 3.49323 13.2383 2.82185 13.6478 2.32692ZM11.6563 8.96807H15.4063V12.6156H11.6563V8.96807ZM2.75 15.9213C2.75047 15.5284 2.91112 15.1517 3.19672 14.8739C3.48232 14.5961 3.86954 14.4399 4.27344 14.4394H23.7266C24.1305 14.4399 24.5177 14.5961 24.8033 14.8739C25.0889 15.1517 25.2496 15.5284 25.25 15.9213V17.7209L23.9844 18.2641C23.7369 18.3701 23.4694 18.4248 23.199 18.4248C22.9285 18.4248 22.6611 18.3701 22.4136 18.2641L20.211 17.3188L18.0078 18.2641C17.7603 18.37 17.4928 18.4247 17.2224 18.4247C16.9519 18.4247 16.6845 18.37 16.4369 18.2641L14.2344 17.3187L12.0313 18.264C11.7837 18.37 11.5162 18.4247 11.2458 18.4247C10.9754 18.4247 10.7079 18.37 10.4604 18.264L8.25782 17.3188L6.0551 18.264C5.80757 18.37 5.54009 18.4247 5.26965 18.4247C4.99921 18.4247 4.73173 18.37 4.4842 18.264L2.75 17.5199V15.9213ZM25.25 26.1762H2.75V19.5133L3.72723 19.9327C4.21328 20.1407 4.73851 20.2481 5.26953 20.2481C5.80056 20.2481 6.32579 20.1407 6.81184 19.9327L8.25782 19.3121L9.70386 19.9327C10.1899 20.1407 10.7151 20.2481 11.2461 20.2481C11.7772 20.2481 12.3024 20.1407 12.7884 19.9327L14.2344 19.3121L15.6803 19.9327C16.1663 20.1407 16.6915 20.2481 17.2226 20.2481C17.7536 20.2481 18.2788 20.1407 18.7648 19.9327L20.211 19.3121L21.6569 19.9327C22.143 20.1407 22.6682 20.2482 23.1991 20.2482C23.7301 20.2482 24.2553 20.1407 24.7414 19.9327L25.2507 19.7142L25.2512 26.1762H25.25Z" fill="#170505"/>
</svg>
