<svg width="28" height="22" viewBox="0 0 28 22" fill="none" xmlns="http://www.w3.org/2000/svg">
<path d="M24.9788 8.10738L20.3754 1.53401L22.5674 0L27.1695 6.57337L24.9788 8.10738Z" fill="black"/>
<path d="M22.4592 11.5045L20.1588 8.21578L9.20276 15.8872L11.5031 19.1732L9.31243 20.7085L3.17639 11.9431L5.36707 10.4091L7.66741 13.6965L18.6235 6.0251L16.3231 2.73775L18.5138 1.20374L24.6498 9.96778L22.4592 11.5031V11.5045Z" fill="black"/>
<path d="M25.6355 4.38136L27.8262 2.84735L26.2922 0.656677L24.1015 2.19069L25.6355 4.38136Z" fill="black"/>
<path d="M7.45078 20.3807L2.84742 13.8074L0.656738 15.3414L5.25877 21.9148L7.45078 20.3807V20.3807Z" fill="black"/>
<path d="M3.72469 19.7241L1.53401 21.2581L0 19.0675L2.19068 17.5334L3.72469 19.7241Z" fill="black"/>
</svg>
