<svg width="73" height="82" viewBox="0 0 73 82" fill="none" xmlns="http://www.w3.org/2000/svg">
<g filter="url(#filter0_d)">
<path d="M9.85946 65.7162L4 0H68.3836L62.5163 65.7057L36.1527 73.0151L9.85946 65.7162Z" fill="#E44F26"/>
<path d="M36.1917 67.4294L57.4965 61.523L62.5085 5.37439H36.1917V67.4294Z" fill="#F1662A"/>
<path d="M36.1917 29.7458H25.5263L24.7909 21.4925H36.1917V13.4321H15.9822L16.1751 15.5965L18.1544 37.8061H36.1917V29.7458Z" fill="#EBEBEB"/>
<path d="M36.1916 50.6777L36.1551 50.6881L27.1795 48.2656L26.6058 41.8376H18.5141L19.6433 54.4901L36.1551 59.0744L36.1916 59.064V50.6777Z" fill="#EBEBEB"/>
<path d="M36.1631 29.7457V37.8061H46.0879L45.1544 48.2603L36.1631 50.6854V59.0717L52.688 54.49L52.8079 53.1288L54.7011 31.9101L54.8993 29.7457H36.1631Z" fill="white"/>
<path d="M36.1631 13.4321V21.4925H55.632L55.7937 19.6827L56.1614 15.5965L56.3544 13.4321H36.1631Z" fill="white"/>
</g>
<defs>
<filter id="filter0_d" x="0" y="0" width="72.3836" height="81.0151" filterUnits="userSpaceOnUse" color-interpolation-filters="sRGB">
<feFlood flood-opacity="0" result="BackgroundImageFix"/>
<feColorMatrix in="SourceAlpha" type="matrix" values="0 0 0 0 0 0 0 0 0 0 0 0 0 0 0 0 0 0 127 0" result="hardAlpha"/>
<feOffset dy="4"/>
<feGaussianBlur stdDeviation="2"/>
<feComposite in2="hardAlpha" operator="out"/>
<feColorMatrix type="matrix" values="0 0 0 0 0 0 0 0 0 0 0 0 0 0 0 0 0 0 0.4 0"/>
<feBlend mode="normal" in2="BackgroundImageFix" result="effect1_dropShadow"/>
<feBlend mode="normal" in="SourceGraphic" in2="effect1_dropShadow" result="shape"/>
</filter>
</defs>
</svg>
