<svg width="60" height="58" viewBox="0 0 60 58" fill="none" xmlns="http://www.w3.org/2000/svg">
<path d="M26.8756 25.7214C26.6297 24.9591 26.4084 24.2213 26.1625 23.459C25.9166 22.6967 25.6953 21.9835 25.4985 21.2704C25.3018 20.5818 25.1297 19.9425 24.9575 19.3523H24.9083C24.687 20.4097 24.4165 21.4671 24.0722 22.5245C23.7034 23.7049 23.3345 24.9345 22.941 26.164C22.5968 27.4182 22.2279 28.574 21.859 29.6068H28.1052C27.9576 29.0879 27.7609 28.4756 27.5396 27.8338C27.3183 27.1723 27.097 26.4591 26.8756 25.7214V25.7214ZM49.5487 0.0727539H11.4323C5.65341 0.0727539 0.981079 4.74509 0.981079 10.524V47.1649C0.981079 52.9439 5.65341 57.6162 11.4323 57.6162H49.5487C55.3277 57.6162 60 52.9439 60 47.1649V10.524C60 4.74509 55.3277 0.0727539 49.5487 0.0727539ZM37.1302 40.722H31.9882C31.8185 40.7466 31.6463 40.6237 31.5971 40.4515L29.5807 34.5988H20.4327L18.5638 40.3778C18.5146 40.5991 18.3179 40.7466 18.0966 40.7245H13.4734C13.2029 40.7245 13.1291 40.5745 13.2029 40.2819L21.1213 17.4833C21.1951 17.2374 21.2688 16.9669 21.3672 16.6718C21.4656 16.1554 21.5148 15.6144 21.5148 15.0734C21.4902 14.9504 21.5885 14.8275 21.7115 14.8029H28.0806C28.2773 14.8029 28.3757 14.8767 28.4003 14.9996L37.3761 40.3286C37.4499 40.5966 37.3761 40.722 37.1302 40.722V40.722ZM45.4912 40.3532C45.4912 40.6237 45.3953 40.7466 45.174 40.7466H40.3516C40.1057 40.7466 39.9828 40.5966 39.9828 40.3532V21.4179C39.9828 21.172 40.0836 21.0737 40.3049 21.0737H45.174C45.3953 21.0737 45.4912 21.1966 45.4912 21.4179V40.3532V40.3532ZM44.9772 18.1473C44.6868 18.4422 44.3366 18.6716 43.9503 18.8201C43.5639 18.9686 43.1502 19.0326 42.737 19.008C41.9255 19.0326 41.1385 18.7129 40.5459 18.1473C39.9825 17.5313 39.6824 16.7193 39.7098 15.8849C39.6852 15.0488 40.0049 14.2619 40.5926 13.6963C41.1877 13.1307 41.9746 12.8356 42.7862 12.8356C43.7477 12.8356 44.4805 13.1307 45.024 13.6963C45.565 14.2865 45.8601 15.0734 45.8355 15.8849C45.8601 16.721 45.565 17.5325 44.9772 18.1473V18.1473Z" fill="#EDBC0E"/>
</svg>
