<svg width="75" height="60" viewBox="0 0 75 60" fill="none" xmlns="http://www.w3.org/2000/svg">
<path d="M43.5721 37.3074C43.5721 40.2679 41.4902 41.9022 37.8336 41.9022H31.1077V32.3644H36.7794C41.1566 32.3778 43.5721 34.146 43.5721 37.3074ZM68.0605 39.0221C66.7927 43.1614 66.6059 48.2384 66.7527 52.1634C66.8995 56.2492 63.7233 60 59.4528 60H15.5738C11.29 60 8.12722 56.2358 8.27402 52.1634C8.40747 48.2384 8.23399 43.1614 6.96619 39.0221C5.68505 34.8694 3.53648 32.2438 0 31.9089V28.0911C3.52313 27.7562 5.68505 25.1306 6.96619 20.9779C8.23399 16.8386 8.42082 11.7616 8.27402 7.83657C8.12722 3.75084 11.3034 4.01875e-07 15.5738 4.01875e-07H59.4395C63.7233 4.01875e-07 66.8861 3.76423 66.7393 7.83657C66.6059 11.7616 66.7794 16.8386 68.0472 20.9779C69.3283 25.1306 71.4769 27.7562 75 28.0911V31.9089C71.4902 32.2438 69.3283 34.8694 68.0605 39.0221ZM39.1281 14.0388H26.0632V45.9612H39.0614C44.8399 45.9612 48.6299 42.8265 48.6299 38.004C48.6299 34.6149 46.081 31.5874 42.8247 31.065V30.8908C47.2553 30.4086 50.2313 27.3275 50.2313 23.081C50.2313 17.4414 46.0543 14.0388 39.1281 14.0388ZM37.7936 28.6001H31.1077V18.0978H38.0872C42.6512 18.0978 45.0667 19.933 45.0667 23.3892C45.0667 26.8319 42.5845 28.6001 37.7936 28.6001Z" fill="#563D7C"/>
</svg>
