<svg width="41" height="61" viewBox="0 0 41 61" fill="none" xmlns="http://www.w3.org/2000/svg">
<path d="M30.9374 40.8748C36.4948 40.8748 41 36.3697 41 30.8122C41 25.2548 36.4948 20.7496 30.9374 20.7496C25.38 20.7496 20.8748 25.2548 20.8748 30.8122C20.8748 36.3697 25.38 40.8748 30.9374 40.8748Z" fill="#19BCFE"/>
<path fill-rule="evenodd" clip-rule="evenodd" d="M10.8121 61.0001C13.4809 61.0001 16.0403 59.9399 17.9275 58.0528C19.8146 56.1657 20.8747 53.6063 20.8747 50.9375V40.8749H10.8121C8.14335 40.8749 5.58388 41.935 3.69678 43.8221C1.80968 45.7093 0.749512 48.2687 0.749512 50.9375C0.749512 53.6063 1.80968 56.1657 3.69678 58.0528C5.58388 59.9399 8.14335 61.0001 10.8121 61.0001V61.0001Z" fill="#09CF83"/>
<path fill-rule="evenodd" clip-rule="evenodd" d="M10.8121 40.8748H20.8747V20.7496H10.8121C8.14335 20.7496 5.58388 21.8098 3.69678 23.6969C1.80968 25.584 0.749512 28.1435 0.749512 30.8122C0.749512 33.481 1.80968 36.0405 3.69678 37.9276C5.58388 39.8147 8.14335 40.8748 10.8121 40.8748Z" fill="#A259FF"/>
<path fill-rule="evenodd" clip-rule="evenodd" d="M10.8124 20.75H20.875V0.624756H10.8124C8.14359 0.624756 5.58413 1.68492 3.69702 3.57202C1.80992 5.45913 0.749756 8.01859 0.749756 10.6874C0.749756 13.3561 1.80992 15.9156 3.69702 17.8027C5.58413 19.6898 8.14359 20.75 10.8124 20.75V20.75Z" fill="#F24E1E"/>
<path fill-rule="evenodd" clip-rule="evenodd" d="M30.9374 20.7496H20.8748V0.62439H30.9374C33.6062 0.62439 36.1657 1.68455 38.0528 3.57166C39.9399 5.45876 41 8.01823 41 10.687C41 13.3558 39.9399 15.9152 38.0528 17.8023C36.1657 19.6894 33.6062 20.7496 30.9374 20.7496Z" fill="#FF7262"/>
</svg>
