<svg width="86" height="65" viewBox="0 0 86 65" fill="none" xmlns="http://www.w3.org/2000/svg">
<path d="M19.6461 64.6285V31.6728L9.42552 22.3225L0.260498 17.1338V58.8127C0.260498 62.0306 2.8677 64.6285 6.07631 64.6285H19.6461V64.6285Z" fill="#4285F4"/>
<path d="M66.1712 64.6284H79.7409C82.9592 64.6284 85.5567 62.0209 85.5567 58.8126V17.134L75.1759 23.0771L66.1712 31.6727V64.6284V64.6284Z" fill="#34A853"/>
<path d="M19.6461 31.6725L18.2554 18.7957L19.6461 6.47144L42.9087 23.9185L66.1712 6.47144L67.7272 18.1304L66.1712 31.6725L42.9087 49.1196L19.6461 31.6725Z" fill="#EA4335"/>
<path d="M66.1712 6.47168V31.6727L85.5567 17.1337V9.37942C85.5567 2.18754 77.347 -1.91235 71.5995 2.40078L66.1712 6.47168Z" fill="#FBBC04"/>
<path d="M0.260498 17.1336L9.17629 23.8207L19.6461 31.6726V6.47159L14.2178 2.40069C8.46027 -1.91277 0.260498 2.18745 0.260498 9.37899V17.1333V17.1336Z" fill="#C5221F"/>
</svg>
