<svg width="65" height="65" viewBox="0 0 65 65" fill="none" xmlns="http://www.w3.org/2000/svg">
<g filter="url(#filter0_d)">
<path d="M4 5C4 2.23858 6.23858 0 9 0H55.2704C58.0318 0 60.2704 2.23858 60.2704 5V51.2704C60.2704 54.0318 58.0318 56.2704 55.2704 56.2704H9C6.23858 56.2704 4 54.0318 4 51.2704V5Z" fill="#F7DF1E"/>
<path d="M18.7955 47.0236L23.1015 44.4176C23.9324 45.8905 24.6881 47.1368 26.5008 47.1368C28.2384 47.1368 29.3341 46.4572 29.3341 43.8133V25.8336H34.622V43.8881C34.622 49.365 31.4115 51.858 26.7274 51.858C22.4973 51.858 20.0418 49.6672 18.7953 47.0232" fill="black"/>
<path d="M37.4942 46.4569L41.7998 43.9641C42.9333 45.8151 44.4065 47.1748 47.0125 47.1748C49.2038 47.1748 50.6008 46.0793 50.6008 44.5683C50.6008 42.7554 49.1655 42.1131 46.7481 41.0558L45.4264 40.4887C41.6112 38.865 39.0806 36.8252 39.0806 32.5192C39.0806 28.553 42.1023 25.5311 46.8239 25.5311C50.1856 25.5311 52.6031 26.7023 54.3404 29.7617L50.223 32.406C49.3163 30.7819 48.3346 30.1398 46.8237 30.1398C45.2749 30.1398 44.2928 31.1219 44.2928 32.406C44.2928 33.9923 45.2749 34.6348 47.5411 35.6169L48.8631 36.1834C53.3581 38.11 55.8887 40.074 55.8887 44.4929C55.8887 49.2526 52.1494 51.8586 47.1257 51.8586C42.2155 51.8586 39.0426 49.5168 37.494 46.4571" fill="black"/>
</g>
<defs>
<filter id="filter0_d" x="0" y="0" width="64.2704" height="64.2704" filterUnits="userSpaceOnUse" color-interpolation-filters="sRGB">
<feFlood flood-opacity="0" result="BackgroundImageFix"/>
<feColorMatrix in="SourceAlpha" type="matrix" values="0 0 0 0 0 0 0 0 0 0 0 0 0 0 0 0 0 0 127 0" result="hardAlpha"/>
<feOffset dy="4"/>
<feGaussianBlur stdDeviation="2"/>
<feComposite in2="hardAlpha" operator="out"/>
<feColorMatrix type="matrix" values="0 0 0 0 0.25098 0 0 0 0 0.25098 0 0 0 0 0.25098 0 0 0 0.25 0"/>
<feBlend mode="normal" in2="BackgroundImageFix" result="effect1_dropShadow"/>
<feBlend mode="normal" in="SourceGraphic" in2="effect1_dropShadow" result="shape"/>
</filter>
</defs>
</svg>
