<svg width="70" height="69" viewBox="0 0 70 69" fill="none" xmlns="http://www.w3.org/2000/svg">
<path d="M59.6433 58.7922H49.2715V42.7812C49.2715 38.9633 49.2023 34.0484 43.8772 34.0484C38.4751 34.0484 37.6485 38.2084 37.6485 42.5033V58.7911H27.277V25.8663H37.2337V30.3658H37.3732C38.3696 28.6864 39.8095 27.3048 41.5395 26.3682C43.2695 25.4316 45.2248 24.975 47.1972 25.0472C57.7095 25.0472 59.6477 31.8631 59.6477 40.7301L59.6433 58.7922V58.7922ZM15.5739 21.3659C12.2497 21.3664 9.55445 18.7105 9.55391 15.4338C9.55336 12.1571 12.2475 9.50034 15.5717 9.4998C18.8959 9.49899 21.5912 12.1549 21.5917 15.4316C21.592 17.0052 20.9582 18.5144 19.8296 19.6273C18.7011 20.7401 17.1702 21.3655 15.5739 21.3659V21.3659ZM20.7599 58.7925H10.3772V25.8663H20.7596V58.7922L20.7599 58.7925ZM64.814 0.00502188H5.16551C2.34637 -0.0262437 0.0344531 2.19981 0 4.97868V64.0203C0.0333594 66.8005 2.345 69.0287 5.16523 68.9996H64.814C67.6402 69.0341 69.9609 66.8059 70 64.0203V4.9741C69.9598 2.18984 67.6389 -0.0359469 64.814 0.000439846" fill="#0A66C2"/>
</svg>
