<svg width="57" height="56" viewBox="0 0 57 56" fill="none" xmlns="http://www.w3.org/2000/svg">
<path d="M23.2389 19.5228C22.3707 19.1708 21.432 19.03 20.47 19.0535C19.8599 19.0535 19.3201 19.0535 18.8743 19.077C18.405 19.0535 18.0765 19.077 17.9122 19.1004V26.9848C18.2407 27.0083 18.5458 27.0317 18.8274 27.0317H20.071C20.9862 27.0317 21.9013 26.8909 22.7696 26.6094C23.5205 26.3982 24.1775 25.9523 24.6937 25.3657C25.1865 24.7791 25.4212 23.9812 25.4212 22.9488C25.4446 22.2213 25.2569 21.4939 24.8815 20.8603C24.4902 20.2511 23.9148 19.7825 23.2389 19.5228ZM46.4696 0.468872H10.0982C4.58386 0.468872 0.125427 4.9273 0.125427 10.4417V45.4028C0.125427 50.9172 4.58386 55.3756 10.0982 55.3756H46.4696C51.984 55.3756 56.4425 50.9172 56.4425 45.4028V10.4417C56.4425 4.9273 51.984 0.468872 46.4696 0.468872ZM29.1264 27.8061C28.1901 29.1202 26.876 30.1057 25.3508 30.6689C23.7551 31.2555 21.9952 31.4667 20.071 31.4667C19.5079 31.4667 19.1324 31.4667 18.8978 31.4432C18.6631 31.4198 18.3346 31.4198 17.8888 31.4198V38.9498C17.9122 39.1141 17.7949 39.2572 17.6306 39.2807H13.0783C12.8906 39.2807 12.7968 39.1845 12.7968 38.9733V14.8297C12.7968 14.6655 12.8672 14.5716 13.0314 14.5716C13.4303 14.5716 13.8058 14.5716 14.3455 14.5481C14.9086 14.5247 15.4953 14.5247 16.1288 14.5012C16.7624 14.4777 17.4429 14.4777 18.1703 14.4543C18.8978 14.4308 19.6017 14.4308 20.3057 14.4308C22.2299 14.4308 23.8255 14.6655 25.1396 15.1582C26.3128 15.5571 27.3923 16.2142 28.2839 17.0824C29.0348 17.8333 29.6215 18.7484 29.9969 19.7575C30.3466 20.743 30.5343 21.752 30.5343 22.808C30.5366 24.826 30.0673 26.492 29.1264 27.8061V27.8061ZM45.7657 36.9341C45.1087 37.8728 44.1912 38.5979 43.1376 39.0249C41.9878 39.5153 40.5798 39.7711 38.888 39.7711C37.8109 39.7711 36.7526 39.6796 35.699 39.4684C34.8777 39.3253 34.0564 39.0695 33.3055 38.7175C33.1413 38.626 33.0216 38.4617 33.0451 38.274V34.191C33.0451 34.123 33.0709 34.0268 33.1413 33.9799C33.2093 33.9329 33.2821 33.9564 33.3525 34.0033C34.2676 34.543 35.2297 34.9208 36.2622 35.1531C37.1515 35.3878 38.0901 35.5051 39.0311 35.5051C39.9228 35.5051 40.5564 35.3854 40.9787 35.1742C41.3542 35.01 41.6123 34.6111 41.6123 34.1887C41.6123 33.8578 41.4246 33.5551 41.0491 33.2501C40.6737 32.9474 39.9017 32.5954 38.7519 32.1449C37.5551 31.7225 36.4546 31.1593 35.4198 30.4577C34.6855 29.9318 34.0759 29.2509 33.6341 28.4631C33.2611 27.7207 33.0766 26.8979 33.0967 26.0673C33.0967 25.0583 33.3783 24.0962 33.8969 23.228C34.4835 22.2894 35.3494 21.5385 36.3584 21.0692C37.4589 20.5083 38.8434 20.2502 40.5094 20.2502C41.4715 20.2502 42.4571 20.3206 43.4191 20.4614C44.1231 20.5553 44.8036 20.743 45.4372 21.0011C45.5287 21.0246 45.6249 21.1184 45.6718 21.2123C45.6953 21.3062 45.7188 21.4 45.7188 21.4939V25.3188C45.7188 25.4126 45.6718 25.5065 45.6014 25.5534C45.3902 25.6003 45.2729 25.6003 45.1791 25.5534C44.4751 25.178 43.7242 24.9198 42.9264 24.7556C42.0581 24.5679 41.1899 24.4505 40.2982 24.4505C39.8289 24.4271 39.3362 24.4975 38.888 24.6148C38.5853 24.6852 38.3248 24.8495 38.1605 25.0841C38.0432 25.2718 37.9728 25.5065 37.9728 25.7177C37.9728 25.9289 38.0667 26.14 38.2098 26.3278C38.421 26.5859 38.7002 26.7971 39.0076 26.9613C39.545 27.2429 40.1105 27.501 40.6713 27.7357C41.9408 28.1581 43.161 28.7447 44.2874 29.4487C45.0617 29.9391 45.6953 30.5985 46.1388 31.3963C46.5142 32.1425 46.702 32.9685 46.6785 33.8109C46.7043 34.9161 46.3758 36.0166 45.7657 36.9341V36.9341Z" fill="#3491FF"/>
</svg>
