<svg width="67" height="60" viewBox="0 0 67 60" fill="none" xmlns="http://www.w3.org/2000/svg">
<path d="M55.0874 19.4472C54.3743 19.201 53.6552 18.9729 52.9308 18.7631C53.0525 18.2626 53.1645 17.7681 53.264 17.2824C54.8966 9.30552 53.8293 2.87921 50.1838 0.763366C46.6885 -1.26502 40.9723 0.850034 35.1993 5.90705C34.6304 6.40633 34.0741 6.92 33.5309 7.44757C33.1673 7.09675 32.7972 6.75275 32.4209 6.41573C26.3705 1.00862 20.306 -1.27029 16.6644 0.851615C13.1723 2.88633 12.1383 8.92751 13.6081 16.4873C13.7543 17.2361 13.9194 17.9809 14.1032 18.7212C13.2448 18.9667 12.4165 19.228 11.6237 19.5062C4.53009 21.9956 0 25.8967 0 29.9432C0 34.1225 4.86326 38.3144 12.2516 40.8562C12.8506 41.0614 13.4545 41.2516 14.0629 41.4265C13.8653 42.2238 13.6899 43.0266 13.5369 43.8337C12.1356 51.2624 13.2299 57.1608 16.7126 59.1826C20.3096 61.2705 26.347 59.1246 32.2254 53.9522C32.7021 53.5317 33.1683 53.0993 33.6235 52.6554C34.2118 53.2266 34.8157 53.7813 35.4346 54.3187C41.1291 59.2505 46.7529 61.2421 50.2322 59.2147C53.8259 57.1207 54.9939 50.7843 53.4775 43.0751C53.3581 42.4711 53.2241 41.8701 53.0758 41.2727C53.4998 41.1462 53.9159 41.0161 54.3216 40.8807C62.0025 38.3194 67 34.1783 67 29.9432C67 25.8819 62.3236 21.9545 55.0874 19.4472ZM53.4215 38.1463C53.0551 38.2683 52.6793 38.3861 52.2961 38.5006C51.4481 35.7987 50.3039 32.9257 48.9035 29.9572C50.2398 27.0595 51.3401 24.2231 52.1642 21.5388C52.8497 21.7385 53.5147 21.949 54.1559 22.171C60.356 24.3196 64.1378 27.4957 64.1378 29.9432C64.1378 32.5501 60.0535 35.9343 53.4215 38.1463ZM50.6698 43.6346C51.3403 47.0433 51.4358 50.1254 50.9917 52.535C50.5929 54.7001 49.7904 56.1434 48.798 56.7216C46.6867 57.9519 42.1713 56.3528 37.3015 52.1349C36.7258 51.6352 36.164 51.1196 35.6168 50.5885C37.5048 48.5104 39.3916 46.0945 41.233 43.4112C44.472 43.122 47.5321 42.6488 50.3071 42.0032C50.4437 42.5582 50.5651 43.1025 50.6698 43.6346ZM22.8418 56.5091C20.7789 57.2422 19.1358 57.2633 18.1426 56.6869C16.0292 55.4601 15.1506 50.7239 16.349 44.3711C16.4915 43.6204 16.6546 42.8738 16.8382 42.1323C19.5826 42.7434 22.6204 43.1828 25.867 43.4478C27.721 46.0734 29.6622 48.4866 31.6185 50.5999C31.2028 51.0048 30.7772 51.3993 30.3421 51.7832C27.7425 54.0703 25.1376 55.693 22.8418 56.5091ZM13.1775 38.1303C9.9105 37.0062 7.21245 35.5455 5.36314 33.9515C3.70123 32.5193 2.86242 31.097 2.86242 29.9432C2.86242 27.4875 6.49952 24.3554 12.5659 22.2266C13.3021 21.9685 14.0726 21.7248 14.8722 21.4961C15.7107 24.2411 16.8105 27.1111 18.1376 30.0133C16.7932 32.9584 15.6777 35.8743 14.8311 38.6516C14.2757 38.4915 13.7244 38.3176 13.1775 38.1303ZM16.4171 15.9339C15.158 9.45699 15.9942 4.57121 18.0986 3.34495C20.34 2.03888 25.2964 3.90105 30.5206 8.57003C30.8613 8.87518 31.1964 9.18652 31.5259 9.50388C29.5792 11.6079 27.6558 14.0032 25.8183 16.6133C22.6672 16.9072 19.6509 17.3793 16.8777 18.0118C16.7069 17.3233 16.5533 16.6302 16.4171 15.9339ZM45.3179 23.117C44.6629 21.9782 43.9836 20.8537 43.2804 19.7444C45.4181 20.0165 47.4664 20.3776 49.3897 20.8191C48.8124 22.6821 48.0927 24.6296 47.2455 26.6264C46.6262 25.4438 45.9836 24.2738 45.3179 23.117ZM33.5322 11.5628C34.8523 13.0025 36.1745 14.6096 37.475 16.3535C34.8369 16.2281 32.1943 16.2276 29.5562 16.3519C30.858 14.6241 32.1914 13.0191 33.5322 11.5628ZM21.6708 23.1368C21.0135 24.2842 20.3828 25.447 19.7794 26.624C18.9461 24.6344 18.2329 22.6779 17.6506 20.7886C19.5622 20.3581 21.6007 20.0062 23.7248 19.7391C23.0138 20.8552 22.329 21.9883 21.6708 23.1368ZM23.7858 40.3523C21.5913 40.1057 19.5221 39.7719 17.6111 39.3531C18.2025 37.4301 18.9314 35.432 19.7828 33.3996C20.3886 34.5776 21.0219 35.741 21.6821 36.889C22.361 38.0692 23.064 39.2251 23.7858 40.3523ZM33.6112 48.5264C32.2545 47.0533 30.9014 45.4235 29.58 43.6707C30.8629 43.7212 32.1707 43.7471 33.5 43.7471C34.8657 43.7471 36.2156 43.7162 37.5443 43.6567C36.2397 45.4412 34.9224 47.0734 33.6112 48.5264ZM47.2724 33.2958C48.168 35.3506 48.9228 37.3381 49.5222 39.2282C47.5797 39.6745 45.4823 40.0338 43.2723 40.3006C43.9805 39.1707 44.6662 38.0267 45.3292 36.8692C46.0032 35.6928 46.6511 34.5013 47.2724 33.2958ZM42.8499 35.4299C41.835 37.2044 40.7631 38.9453 39.6357 40.6497C37.5937 40.7953 35.5472 40.8676 33.5 40.8665C31.4149 40.8665 29.3868 40.8012 27.4339 40.6737C26.2771 38.9732 25.1847 37.2293 24.159 35.4457C23.1381 33.6715 22.1847 31.859 21.3005 30.012C22.1825 28.1645 23.1332 26.3511 24.1506 24.5756C25.1677 22.7996 26.2511 21.0635 27.3991 19.3703C29.3915 19.2186 31.4348 19.1395 33.4997 19.1395C35.5741 19.1395 37.6202 19.2193 39.6122 19.3721C40.7486 21.0628 41.8253 22.7932 42.8405 24.5603C43.8613 26.3319 44.8246 28.1365 45.7288 29.9711C44.8339 31.8245 43.8736 33.6453 42.8499 35.4299ZM48.7543 3.25908C50.9977 4.56146 51.8703 9.81341 50.4607 16.7007C50.3707 17.1401 50.2696 17.5877 50.1597 18.0416C47.3797 17.3956 44.3613 16.9154 41.2011 16.6169C39.3601 13.9782 37.4525 11.5792 35.5375 9.5023C36.0394 9.01536 36.5532 8.54105 37.0785 8.0798C42.025 3.74721 46.648 2.03651 48.7543 3.25908ZM33.5 23.9213C36.8042 23.9213 39.4829 26.6174 39.4829 29.9432C39.4829 33.269 36.8042 35.9652 33.5 35.9652C30.1958 35.9652 27.5171 33.269 27.5171 29.9432C27.5171 26.6174 30.1958 23.9213 33.5 23.9213Z" fill="#00D8FF"/>
</svg>
