<svg width="81" height="81" viewBox="0 0 81 81" fill="none" xmlns="http://www.w3.org/2000/svg">
<path d="M40.4918 0.765137C18.4767 0.765137 0.630249 18.6116 0.630249 40.6266C0.630249 62.6417 18.4767 80.4882 40.4918 80.4882C62.5068 80.4882 80.3533 62.6417 80.3533 40.6266C80.3533 18.6116 62.5068 0.765137 40.4918 0.765137Z" fill="#40B3E0"/>
<path d="M59.8878 23.6948L52.7678 59.5917C52.7678 59.5917 51.7722 62.0811 49.0339 60.8862L32.6042 48.29L26.6299 45.4025L16.573 42.0168C16.573 42.0168 15.0296 41.4693 14.8801 40.2744C14.7306 39.0795 16.6228 38.4324 16.6228 38.4324L56.6014 22.7494C56.6014 22.7494 59.8875 21.3056 59.8875 23.6954" fill="white"/>
<path d="M31.3417 59.188C31.3417 59.188 30.8621 59.1431 30.2642 57.251C29.6672 55.3591 26.6299 45.4018 26.6299 45.4018L50.7767 30.0676C50.7767 30.0676 52.1709 29.2212 52.1211 30.0676C52.1211 30.0676 52.3699 30.2171 51.6228 30.914C50.8763 31.6113 32.6543 47.9909 32.6543 47.9909" fill="#D2E5F1"/>
<path d="M38.9038 53.1192L32.4054 59.0443C32.4054 59.0443 31.8972 59.4298 31.3416 59.1881L32.5861 48.1826" fill="#B5CFE4"/>
</svg>
