<svg width="80" height="81" viewBox="0 0 80 81" fill="none" xmlns="http://www.w3.org/2000/svg">
<path d="M21.0714 69.239L22.3747 69.8908C27.8058 73.1492 33.8881 74.6699 39.9708 74.6699C59.0872 74.6699 74.7278 59.0292 74.7278 39.9128C74.7278 30.7892 71.0347 21.8826 64.518 15.3656C58.0009 8.84856 49.3114 5.15576 39.9708 5.15576C20.8544 5.15576 5.2134 20.7964 5.43077 40.1302C5.43077 46.6469 7.38585 52.9469 10.6442 58.3774L11.5131 59.681L8.03765 72.4977L21.0714 69.239Z" fill="#00E676"/>
<path d="M68.2108 11.8899C60.8249 4.28696 50.6151 0.159424 40.1879 0.159424C18.0305 0.159424 0.21737 18.1896 0.434428 40.1299C0.434428 47.0814 2.38951 53.8158 5.64819 59.8981L0 80.5352L21.0715 75.1044C26.9367 78.363 33.4535 79.8837 39.9708 79.8837C61.9111 79.8837 79.7243 61.8532 79.7243 39.9132C79.7243 29.2686 75.5967 19.2758 68.2111 11.8899H68.2108ZM40.1879 73.1496C34.3226 73.1496 28.4574 71.6292 23.461 68.5879L22.1577 67.9361L9.55835 71.1945L12.8167 58.8125L11.9479 57.5089C2.38951 42.0856 6.95147 21.6653 22.5921 12.107C38.2328 2.54894 58.4354 7.1109 67.9938 22.7516C77.5518 38.3922 72.9898 58.5948 57.3495 68.1532C52.3528 71.4116 46.2705 73.1493 40.1879 73.1493V73.1496ZM59.3043 49.0371L56.9148 47.9509C56.9148 47.9509 53.4393 46.4302 51.2669 45.344C51.0495 45.344 50.8325 45.1266 50.6151 45.1266C49.9633 45.1266 49.5289 45.344 49.0944 45.5614C49.0944 45.5614 48.8774 45.7784 45.8361 49.2542C45.6187 49.6886 45.1843 49.906 44.7498 49.906H44.5325C44.3154 49.906 43.881 49.6886 43.6636 49.4715L42.5774 49.0371C40.1879 47.9509 38.0157 46.6473 36.2777 44.9096C35.8433 44.4751 35.1915 44.0407 34.7571 43.6063C33.2364 42.0856 31.7157 40.3476 30.6298 38.3925L30.4125 37.9581C30.1954 37.7407 30.1954 37.5237 29.978 37.0892C29.978 36.6548 29.978 36.2204 30.1954 36.003C30.1954 36.003 31.0643 34.9168 31.7157 34.2653C32.1505 33.8306 32.3675 33.1791 32.802 32.7446C33.2364 32.0929 33.4538 31.224 33.2364 30.5722C33.0193 29.486 30.4125 23.6207 29.761 22.3174C29.3262 21.6656 28.8921 21.4486 28.2403 21.2312H25.8508C25.4161 21.2312 24.982 21.4486 24.5472 21.4486L24.3298 21.6656C23.8954 21.883 23.461 22.3174 23.0266 22.5345C22.5921 22.9692 22.3748 23.4034 21.9403 23.8381C20.4197 25.7932 19.5508 28.1827 19.5508 30.5722C19.5508 32.3099 19.9853 34.0479 20.637 35.5686L20.8544 36.2204C22.8095 40.3476 25.4161 44.0407 28.8921 47.2991L29.761 48.1679C30.4125 48.8197 31.0643 49.2542 31.4987 49.9056C36.0607 53.8161 41.2741 56.6401 47.1393 58.1607C47.7911 58.3778 48.66 58.3778 49.3118 58.5951H51.4839C52.5702 58.5951 53.8735 58.1607 54.7426 57.7263C55.3941 57.2919 55.8285 57.2919 56.263 56.8574L56.6977 56.4227C57.1321 55.9883 57.5666 55.7712 58.001 55.3368C58.4354 54.9024 58.8698 54.4679 59.0872 54.0332C59.5216 53.1643 59.7387 52.0781 59.9561 50.9922V49.4715C59.9561 49.4715 59.7387 49.2542 59.3043 49.0371V49.0371Z" fill="white"/>
</svg>
