<svg width="259" height="444" viewBox="0 0 259 444" fill="none" xmlns="http://www.w3.org/2000/svg">
<g filter="url(#filter0_d)">
<g filter="url(#filter1_d)">
<path d="M156.498 430.499C207.903 430.499 249.575 426.44 249.575 421.433C249.575 416.426 207.903 412.367 156.498 412.367C105.092 412.367 63.4202 416.426 63.4202 421.433C63.4202 426.44 105.092 430.499 156.498 430.499Z" fill="#EFEFEF"/>
<path d="M62.719 159.607L56.3245 157.455C56.5983 155.083 56.3381 152.679 55.5629 150.42C54.2191 147.93 52.5347 145.64 50.5585 143.615C50.5585 143.615 50.3409 139.372 48.4673 137.438C46.5936 135.504 45.6266 135.02 45.2156 133.437C44.8046 131.853 40.9969 131.756 41.2265 135.999C41.4562 140.242 42.4353 138.804 42.5441 141.874C42.6529 144.944 43.9463 145.984 43.9463 145.984L42.6166 146.842C42.6166 146.842 34.155 140.423 26.9022 135.032C19.6494 129.641 18.0659 130.064 17.3165 131.805C16.567 133.545 23.2033 138.042 23.2033 138.042L39.099 149.127L38.2166 149.695C38.2166 149.695 17.4857 137.97 14.7054 136.592C11.9252 135.214 10.7889 135.383 9.29003 136.942C7.79111 138.501 12.59 141.088 12.59 141.088C12.1617 141.576 11.8648 142.165 11.7273 142.8C11.5898 143.434 11.6163 144.093 11.8043 144.715C12.4934 146.77 34.566 155.763 34.566 155.763L33.8045 157.504C33.8045 157.504 16.5187 151.085 14.3307 150.602C12.1428 150.118 12.5296 153.648 14.9956 154.566C17.4615 155.485 31.8462 161.275 34.155 162.919C36.4639 164.563 45.4694 168.806 47.9716 167.827C48.9491 167.483 49.9889 167.353 51.0211 167.444C52.0532 167.536 53.0537 167.848 53.9552 168.359C55.6516 168.907 57.4551 169.04 59.2135 168.746C59.6487 168.468 62.719 159.607 62.719 159.607Z" fill="#FFAD96"/>
<path d="M148.181 79.8868L149.656 112.984L169.504 110.772L164.367 79.8868H148.181Z" fill="#FFAD95"/>
<path d="M148.181 83.2593C153.117 87.4425 159.465 89.5828 165.926 89.2429L164.959 83.5736L148.181 83.2593Z" fill="#191B1E"/>
<path d="M115.084 357.899V379.959L127.583 379.234L131.995 354.961L115.084 357.899Z" fill="#FFAD95"/>
<path d="M197.464 357.899V379.959L184.953 379.234L180.541 354.961L197.464 357.899Z" fill="#FFAD95"/>
<path d="M119.496 215.212L117.284 268.17L110.491 354.345C110.491 354.345 121.237 362.71 137.362 357.331C137.362 357.331 154.213 234.033 156.474 228.315C157.005 226.986 161.853 230.733 161.853 230.733L174.992 355.554C174.992 355.554 187.54 363.314 204.257 356.762L196.727 207.161C196.727 207.161 170.266 200.283 119.496 215.212Z" fill="#5F41E9"/>
<path d="M137.882 45.3151L140.094 59.2888C140.094 59.2888 135.682 54.8767 132.733 60.0262C129.783 65.1757 136.359 75.4746 141.557 73.2625C141.557 73.2625 143.769 84.2989 154.854 85.7615C165.939 87.2242 173.24 81.3494 175.403 76.9373C177.567 72.5252 177.616 71.7878 177.616 71.7878C177.616 71.7878 182.765 73.2625 184.965 67.3757C187.165 61.4888 184.965 56.3514 182.028 55.614C179.888 55.0701 178.401 59.2404 178.401 59.2404C178.401 59.2404 185.013 37.1798 168.84 32.7677C152.666 28.3556 138.62 32.804 137.882 45.3151Z" fill="#FFAD95"/>
<path d="M139.357 60.0262C139.357 60.0262 126.121 42.3656 129.795 29.1293C133.47 15.8929 148.181 26.9292 148.181 26.9292C148.181 26.9292 147.444 10.006 159.955 6.37964C172.466 2.75324 173.191 19.6764 182.753 19.6764C192.314 19.6764 200.401 29.9754 192.315 38.0623C184.228 46.1492 180.541 59.3976 180.541 59.3976L177.603 58.6603L178.014 49.9085C178.053 49.0925 177.929 48.2769 177.65 47.5093C177.37 46.7417 176.94 46.0375 176.385 45.4377C175.831 44.838 175.162 44.3547 174.419 44.0161C173.675 43.6775 172.872 43.4904 172.055 43.4656C166.773 43.3085 159.471 42.136 155.531 37.337C150.696 31.426 145.86 35.7172 143.612 38.4612C142.769 39.4882 142.282 40.7604 142.222 42.0876L141.557 58.6361L139.357 60.0262Z" fill="#2E353D"/>
<path d="M119.496 218.161L119.025 225.849C129.645 220.61 141.522 218.453 153.306 219.624C169.492 221.099 192.278 216.832 192.278 216.832L175.355 211.537L148.919 209.289L128.369 211.501L119.496 218.161Z" fill="#2E353D"/>
<path d="M145.969 92.3858L171.717 90.911L173.191 96.0605H168.779L176.866 115.921L145.969 116.658L146.706 101.947H137.882V93.1231L145.969 92.3858Z" fill="#E5E93F"/>
<path d="M147.202 104.957L125.988 117.42C125.988 117.42 115.399 172.312 117.816 220.362C117.816 220.362 154.08 211.005 174.63 216.614C195.179 222.223 207.086 207.887 207.086 207.887L199.64 108.572L169.021 101.21L147.202 104.957Z" fill="#E5E93F"/>
<path d="M137.882 101.947L159.955 101.21L146.598 104.208L137.882 101.947Z" fill="#2E353D"/>
<path d="M173.191 96.0605H164.367L169.396 97.5957L173.191 96.0605Z" fill="#2E353D"/>
<path d="M156.268 228.448L152.642 230.66L141.605 297.592C141.605 297.592 138.825 346.04 139.115 344.989C139.405 343.937 156.268 228.448 156.268 228.448Z" fill="#2E353D"/>
<path d="M199.845 271.421L197.222 358.757L201.598 357.669L204.813 356.436L199.845 271.421Z" fill="#2E353D"/>
<path d="M157.525 228.231C157.118 225.584 157.225 222.883 157.84 220.277L158.202 220.361C157.608 222.909 157.497 225.546 157.876 228.134L157.525 228.231Z" fill="white"/>
<path d="M195.856 228.049C192.975 228.108 190.141 227.307 187.717 225.748C185.293 224.189 183.388 221.944 182.245 219.298L182.596 219.177C182.596 219.261 186.222 228.726 197.742 227.638V228.001C197.115 228.051 196.485 228.067 195.856 228.049V228.049Z" fill="white"/>
<path d="M195.905 230.02C192.453 230.099 189.056 229.143 186.152 227.275C183.248 225.407 180.97 222.713 179.61 219.539L179.961 219.406C179.961 219.527 184.288 230.902 198.177 229.536V229.899C197.422 229.978 196.664 230.019 195.905 230.02Z" fill="white"/>
<path d="M121.213 228.062C120.56 228.062 119.871 228.025 119.146 227.953V227.59C130.702 228.726 134.328 220.011 134.365 219.926L134.703 220.059C134.739 220.168 131.415 228.062 121.213 228.062Z" fill="white"/>
<path d="M121.019 230.02C120.252 230.02 119.486 229.98 118.723 229.899V229.536C132.612 230.902 136.855 219.527 136.939 219.406L137.29 219.539C135.929 222.707 133.653 225.397 130.755 227.264C127.856 229.131 124.467 230.09 121.019 230.02V230.02Z" fill="white"/>
<path d="M197.464 199.764C197.464 199.764 188.833 187.676 185.896 186.092C182.958 184.508 171.62 186.249 168.852 188.111C166.084 189.972 163.678 198.664 164.27 199.195C165.775 199.998 167.339 200.685 168.948 201.25C168.948 201.25 168.525 204.127 170.87 205.155C171.914 205.543 172.901 206.067 173.808 206.714C173.808 206.714 173.977 210.135 175.718 210.619C177.458 211.102 181.423 210.328 181.423 210.328C181.423 210.328 181.907 208.588 184.723 207.911C187.54 207.234 197.464 199.764 197.464 199.764Z" fill="#FFAD96"/>
<path d="M170 192.511C170 192.511 163.956 190.903 164.73 186.95C165.503 182.997 165.806 187.337 171.257 185.681C176.709 184.025 179.646 182.647 182.427 186.684C185.207 190.722 170 192.511 170 192.511Z" fill="#FFAD96"/>
<path d="M195.385 227.868L195.022 227.844L195.421 220.18H186.21L185.509 223.71L185.146 223.637L185.908 219.805H195.82L195.385 227.868Z" fill="white"/>
<path d="M188.162 221.332L188.133 221.695L197.719 222.462L197.748 222.099L188.162 221.332Z" fill="white"/>
<path d="M59.0926 158.386C56.3075 160.97 54.3798 164.345 53.5684 168.057C53.5684 168.262 53.3629 168.057 53.3629 168.057L56.3003 169.531" fill="#2E353D"/>
<path d="M123.86 271.107C121.14 278.635 120.137 286.676 120.923 294.642C122.385 307.153 134.896 283.618 133.422 274.794C131.947 265.97 124.646 267.432 123.86 271.107Z" fill="#2E353D"/>
<path d="M181.278 280.669C181.278 280.669 177.652 287.293 182.753 299.067C187.854 310.84 187.165 287.293 185.69 282.143C184.215 276.994 181.278 280.669 181.278 280.669Z" fill="#2E353D"/>
<path d="M110.672 349.812L105.523 350.549L103.311 359.374L137.882 361.574L140.094 352.749L137.749 352.665L110.672 349.812Z" fill="#5F41E9"/>
<path d="M177.144 353.704L172.079 354.865L170.616 363.846L205.249 363.133L206.711 354.164L204.366 354.26L177.144 353.704Z" fill="#5F41E9"/>
<path d="M139.357 352.749L105.523 350.549L110.672 349.812L139.357 352.749Z" fill="#2E353D"/>
<path d="M171.717 354.962L174.859 354.224H204.076L171.946 355.699L171.717 354.962Z" fill="#2E353D"/>
<path d="M186.428 131.37L195.989 156.368L193.052 162.992L194.515 166.667L182.016 184.327L203.339 161.517L186.428 131.37Z" fill="#2E353D"/>
<path d="M190.84 195.799L201.876 204.913L206.482 199.425L206.034 193.538L190.84 195.799Z" fill="#2E353D"/>
<path d="M200.16 108.547L223.937 168.613L201.707 202.616C193.726 199.345 187.108 193.436 182.958 185.874L182.1 184.315L196.485 166.654L193.862 163.391L197.79 157.504L186.428 131.43C186.428 131.43 186.428 106.541 200.16 108.547Z" fill="#E5E93F"/>
<path d="M218.751 155.534C218.751 155.534 210.011 164.213 218.086 177.582L223.937 168.879L218.751 155.534Z" fill="#ECEF68"/>
<path d="M161.418 143.869L95.6709 182.248L55.442 176.651C54.9874 168.033 57.505 159.52 62.5739 152.536L63.6135 151.097L85.7224 156.561L87.5598 152.802L94.5588 153.841L126.519 116.985C126.519 116.985 157.332 130.62 161.418 143.869Z" fill="#E5E93F"/>
<path d="M193.777 163.729L202.601 165.929L195.989 166.667L193.777 163.729Z" fill="#2E353D"/>
<path d="M87.8742 152.693L94.4864 161.517L85.6621 156.368L87.8742 152.693Z" fill="#2E353D"/>
<path d="M95.9611 182.115L119.182 168.528L122.434 154.168L114.347 168.141L95.9611 182.115Z" fill="#2E353D"/>
<path d="M134.208 367.46H111.41V371.135H114.347V401.295H126.846L128.321 377.759L131.27 377.022V371.872L134.208 371.135V367.46Z" fill="white"/>
<path d="M177.603 367.46H200.401V371.135H197.464V401.295H184.953L183.49 377.759L180.541 377.022V371.872L177.603 371.135V367.46Z" fill="white"/>
<path d="M87.8741 415.994C87.462 417.685 87.462 419.451 87.8741 421.143C88.6115 423.343 102.585 424.77 110.672 421.881C118.759 418.992 116.559 418.194 122.434 418.194C128.309 418.194 129.795 416.731 129.795 415.994C129.795 415.256 129.106 411.34 129.106 411.34L87.8741 415.994Z" fill="#191B1E"/>
<path d="M112.147 382.147C113.848 384.106 116.193 385.392 118.759 385.774C123.171 386.511 127.583 382.147 130.533 382.147L129.058 412.367C127.915 413.22 126.59 413.795 125.186 414.049C123.783 414.303 122.34 414.228 120.971 413.83C116.559 412.367 110.672 420.454 101.848 419.717C93.0235 418.98 88.6114 418.242 87.8741 416.09C87.1367 413.939 98.8983 407.266 104.797 405.792C110.696 404.317 109.947 394.755 109.209 389.618C108.472 384.48 107.723 377.759 112.147 382.147Z" fill="#2E353D"/>
<path d="M109.355 387.575C109.249 387.547 109.139 387.544 109.032 387.566C108.925 387.587 108.824 387.633 108.738 387.7C108.652 387.766 108.582 387.852 108.534 387.949C108.485 388.047 108.46 388.155 108.46 388.264V390.996C108.46 393.945 108.46 393.945 110.672 394.622C114.539 395.476 118.476 395.969 122.434 396.097C124.646 396.097 127.583 393.897 127.583 393.159C127.583 392.422 124.646 389.533 121.709 389.533C117.548 389.184 113.419 388.53 109.355 387.575Z" fill="#191B1E"/>
<path d="M109.355 396.399C109.249 396.374 109.14 396.373 109.034 396.395C108.928 396.418 108.828 396.464 108.743 396.53C108.657 396.596 108.587 396.68 108.538 396.777C108.489 396.874 108.463 396.98 108.46 397.088V399.82C108.46 402.77 108.46 402.77 110.672 403.507C114.54 404.351 118.477 404.84 122.434 404.97C124.646 404.97 127.583 402.77 127.583 402.032C127.583 401.295 124.646 398.406 121.709 398.406C117.547 398.041 113.418 397.37 109.355 396.399V396.399Z" fill="#191B1E"/>
<path d="M105.885 420.454L105.16 420.382C105.861 411.92 97.3631 409.261 97.0005 409.152L97.2181 408.439C97.2664 408.475 106.635 411.437 105.885 420.454Z" fill="#191B1E"/>
<path d="M124.283 409.382C124.218 409.805 124.034 410.2 123.751 410.521C123.468 410.842 123.1 411.075 122.688 411.193C122.277 411.311 121.841 411.308 121.431 411.186C121.021 411.063 120.655 410.825 120.376 410.501C120.098 410.176 119.918 409.779 119.858 409.355C119.799 408.931 119.862 408.5 120.04 408.111C120.219 407.722 120.505 407.392 120.865 407.161C121.225 406.93 121.643 406.807 122.071 406.807C122.704 406.86 123.291 407.159 123.705 407.641C124.119 408.123 124.327 408.748 124.283 409.382V409.382Z" fill="#191B1E"/>
<path d="M223.61 415.994C224.022 417.685 224.022 419.451 223.61 421.143C222.873 423.343 208.899 424.77 200.812 421.881C192.725 418.992 194.925 418.194 189.039 418.194C183.152 418.194 181.689 416.731 181.689 415.994C181.689 415.256 182.378 411.34 182.378 411.34L223.61 415.994Z" fill="#191B1E"/>
<path d="M199.338 382.147C197.637 384.106 195.292 385.392 192.726 385.774C188.301 386.511 183.889 382.147 180.952 382.147L182.427 412.367C183.57 413.22 184.895 413.795 186.298 414.049C187.701 414.303 189.144 414.228 190.514 413.83C194.926 412.367 200.812 420.454 209.637 419.717C218.461 418.98 222.934 418.242 223.61 416.09C224.287 413.939 212.574 407.266 206.687 405.792C200.8 404.317 201.538 394.755 202.275 389.618C203.012 384.48 203.75 377.759 199.338 382.147Z" fill="#2E353D"/>
<path d="M202.13 387.575C202.235 387.547 202.345 387.543 202.451 387.565C202.557 387.587 202.657 387.633 202.743 387.7C202.828 387.766 202.897 387.852 202.944 387.95C202.991 388.048 203.014 388.155 203.012 388.264V390.996C203.012 393.945 203.012 393.945 200.812 394.622C196.942 395.476 193 395.969 189.039 396.097C186.839 396.097 183.889 393.897 183.889 393.16C183.889 392.422 186.839 389.533 189.776 389.533C193.936 389.183 198.065 388.529 202.13 387.575V387.575Z" fill="#191B1E"/>
<path d="M202.13 396.399C202.235 396.374 202.344 396.372 202.449 396.395C202.554 396.417 202.653 396.464 202.738 396.53C202.823 396.596 202.892 396.681 202.939 396.778C202.987 396.874 203.012 396.98 203.012 397.088V399.82C203.012 402.77 203.012 402.77 200.812 403.507C196.94 404.351 192.999 404.84 189.039 404.97C186.839 404.97 183.889 402.77 183.889 402.032C183.889 401.295 186.839 398.406 189.776 398.406C193.938 398.04 198.067 397.369 202.13 396.399V396.399Z" fill="#191B1E"/>
<path d="M205.587 420.454C204.838 411.437 214.17 408.475 214.266 408.439L214.472 409.152C214.109 409.261 205.623 411.969 206.325 420.382L205.587 420.454Z" fill="#191B1E"/>
<path d="M187.201 409.382C187.266 409.805 187.451 410.2 187.733 410.521C188.016 410.842 188.385 411.075 188.796 411.193C189.207 411.311 189.644 411.308 190.053 411.186C190.463 411.063 190.829 410.825 191.108 410.501C191.387 410.176 191.567 409.779 191.626 409.355C191.686 408.931 191.623 408.5 191.444 408.111C191.266 407.722 190.98 407.392 190.62 407.161C190.26 406.93 189.841 406.807 189.413 406.807C188.78 406.86 188.193 407.159 187.779 407.641C187.365 408.123 187.158 408.748 187.201 409.382Z" fill="#191B1E"/>
<path d="M150.393 55.6141C151.208 55.6141 151.868 54.4613 151.868 53.0393C151.868 51.6173 151.208 50.4646 150.393 50.4646C149.579 50.4646 148.919 51.6173 148.919 53.0393C148.919 54.4613 149.579 55.6141 150.393 55.6141Z" fill="#2E353D"/>
<path d="M167.304 53.0393C167.304 54.4536 166.64 55.6141 165.83 55.6141C165.02 55.6141 164.367 54.4053 164.367 53.0393C164.367 51.6734 165.02 50.4646 165.83 50.4646C166.64 50.4646 167.304 51.6129 167.304 53.0393Z" fill="#2E353D"/>
<path d="M157.005 49.7272L156.268 65.9131L162.155 64.4383L157.005 49.7272Z" fill="#FF5777"/>
<path d="M153.826 45.0975C152.781 44.2322 151.472 43.7502 150.115 43.7315C148.097 43.7315 144.99 43.8403 144.506 45.3151C143.769 47.5151 145.244 48.2524 149.656 48.2524C154.068 48.2524 154.805 46.0524 154.068 45.3151L153.826 45.0975Z" fill="#2E353D"/>
<path d="M163.195 45.0975C164.244 44.2313 165.557 43.7494 166.918 43.7315C168.924 43.7315 172.031 43.8403 172.527 45.3151C173.252 47.5151 171.789 48.2524 167.377 48.2524C162.965 48.2524 162.228 46.0524 162.965 45.3151L163.195 45.0975Z" fill="#2E353D"/>
<path d="M137.882 61.4888C137.882 61.4888 135.682 60.0261 134.945 62.9635C134.207 65.9009 136.407 69.5877 139.357 69.5877C142.306 69.5877 137.145 66.6383 138.62 65.1756C140.094 63.713 137.882 61.4888 137.882 61.4888Z" fill="#EF947F"/>
<path d="M180.589 60.0262C180.589 60.0262 182.801 58.5514 183.526 61.4888C184.252 64.4262 182.064 68.1131 179.114 68.1131C176.165 68.1131 181.326 65.1757 179.852 63.7009C178.377 62.2262 180.589 60.0262 180.589 60.0262Z" fill="#EF947F"/>
<path d="M166.688 74.7615C167.039 74.2483 167.245 73.6496 167.284 73.0289C167.323 72.4081 167.193 71.7885 166.908 71.2357C166.623 70.6829 166.193 70.2177 165.665 69.8892C165.137 69.5608 164.53 69.3814 163.908 69.3702H163.751C159.762 69.3702 159.193 71.6428 155.204 69.9383C151.215 68.2339 150.067 71.6428 152.352 74.4955C153.36 75.7549 154.677 76.7319 156.174 77.3314C157.672 77.9309 159.299 78.1324 160.898 77.9164C162.029 77.8216 163.128 77.4921 164.125 76.9489C165.122 76.4057 165.995 75.6607 166.688 74.7615Z" fill="white"/>
<path d="M148.544 60.3889C146.76 60.3889 145.016 59.8597 143.533 58.8683C142.05 57.8769 140.894 56.4678 140.212 54.8193C139.529 53.1709 139.351 51.3571 139.7 49.6075C140.049 47.8579 140.909 46.2512 142.172 44.9905C143.434 43.7299 145.042 42.872 146.792 42.5254C148.542 42.1788 150.356 42.3591 152.003 43.0435C153.651 43.7279 155.058 44.8856 156.048 46.3701C157.037 47.8546 157.564 49.5993 157.562 51.3833C157.558 53.7729 156.607 56.0634 154.916 57.7519C153.225 59.4405 150.933 60.3889 148.544 60.3889V60.3889ZM148.544 43.103C146.906 43.103 145.305 43.5887 143.944 44.4985C142.582 45.4084 141.521 46.7016 140.894 48.2146C140.267 49.7276 140.103 51.3925 140.423 52.9987C140.742 54.605 141.531 56.0804 142.689 57.2384C143.847 58.3964 145.322 59.185 146.928 59.5045C148.535 59.824 150.2 59.66 151.713 59.0333C153.226 58.4066 154.519 57.3453 155.429 55.9836C156.339 54.6219 156.824 53.021 156.824 51.3833C156.824 49.1872 155.952 47.0811 154.399 45.5283C152.846 43.9754 150.74 43.103 148.544 43.103V43.103Z" fill="#2E353D"/>
<path d="M167.667 60.3889C165.883 60.3889 164.139 59.8597 162.656 58.8683C161.173 57.8769 160.017 56.4678 159.335 54.8193C158.653 53.1709 158.475 51.3571 158.824 49.6075C159.173 47.8579 160.033 46.2512 161.295 44.9905C162.557 43.7299 164.165 42.872 165.915 42.5254C167.665 42.1788 169.479 42.3591 171.126 43.0435C172.774 43.7279 174.181 44.8856 175.171 46.3701C176.16 47.8546 176.687 49.5993 176.685 51.3833C176.682 53.7729 175.73 56.0634 174.039 57.7519C172.348 59.4405 170.057 60.3889 167.667 60.3889V60.3889ZM167.667 43.103C166.029 43.103 164.428 43.5887 163.067 44.4985C161.705 45.4084 160.644 46.7016 160.017 48.2146C159.39 49.7276 159.226 51.3925 159.546 52.9987C159.865 54.605 160.654 56.0804 161.812 57.2384C162.97 58.3964 164.445 59.185 166.052 59.5045C167.658 59.824 169.323 59.66 170.836 59.0333C172.349 58.4066 173.642 57.3453 174.552 55.9836C175.462 54.6219 175.947 53.021 175.947 51.3833C175.947 50.2959 175.733 49.2192 175.317 48.2146C174.901 47.21 174.291 46.2972 173.522 45.5283C172.753 44.7594 171.84 44.1495 170.836 43.7333C169.831 43.3172 168.754 43.103 167.667 43.103Z" fill="#2E353D"/>
<path d="M159.87 47.5997C157.453 46.125 156.51 47.4305 156.474 47.4909L155.845 47.092C155.845 47.092 157.138 45.0975 160.245 46.9711L159.87 47.5997Z" fill="#2E353D"/>
<path d="M176.635 51.203L176.335 51.8768L182.168 54.4677L182.467 53.7939L176.635 51.203Z" fill="#2E353D"/>
<path d="M139.619 49.5314L136.39 54.7099L137.017 55.1007L140.246 49.9222L139.619 49.5314Z" fill="#2E353D"/>
<path d="M150.454 31.8007C149.889 29.9659 148.966 28.2614 147.737 26.786C146.509 25.3107 145 24.0939 143.298 23.2061C137.725 20.4259 132.733 25.2974 132.684 25.3457L132.165 24.8259C132.225 24.8259 137.58 19.5314 143.624 22.5534C145.43 23.4742 147.03 24.7528 148.327 26.3113C149.624 27.8699 150.59 29.6758 151.167 31.6194L150.454 31.8007Z" fill="#2E353D"/>
<path d="M189.957 41.1689L189.522 40.5766C194.357 37.0469 196.968 33.7469 197.428 30.4832C197.556 29.2926 197.436 28.0883 197.076 26.9463C196.716 25.8042 196.124 24.7489 195.337 23.8468C190.393 17.5006 181.665 19.7974 181.58 19.8215L181.387 19.1083C181.472 19.1083 190.671 16.6907 195.893 23.3875C196.748 24.3751 197.389 25.53 197.774 26.7786C198.159 28.0273 198.28 29.3424 198.129 30.6403C197.67 34.0128 194.986 37.5184 189.957 41.1689Z" fill="#2E353D"/>
<path d="M147.468 28.1381C147.468 28.0293 147.238 27.4007 147.009 26.4216C144.785 20.1237 137.532 18.8424 137.459 18.8303L137.58 18.105C137.653 18.105 143.455 19.1446 146.525 23.7985C145.848 19.1084 145.86 11.8072 151.276 7.87859C159.471 1.90711 167.788 7.0687 167.873 7.12914L167.474 7.74562C167.401 7.74562 159.496 2.80163 151.759 8.47091C145.558 12.9676 146.924 22.5293 147.807 26.3249C147.986 26.8614 148.123 27.411 148.218 27.9689L147.468 28.1381Z" fill="#2E353D"/>
<path d="M12.844 140.931L33.3936 151.23L9.13293 138.248C10.1053 139.46 11.3876 140.388 12.844 140.931V140.931Z" fill="#2E353D"/>
<path d="M42.2661 140.085C43.7062 139.699 45.1876 139.488 46.6782 139.456L42.4595 140.81L42.2661 140.085Z" fill="#2E353D"/>
<path d="M37.3826 160.852L36.8507 160.719C37.3832 158.93 38.4922 157.368 40.0051 156.274C41.518 155.181 43.3499 154.619 45.2156 154.675V155.231C43.4706 155.163 41.7526 155.678 40.3338 156.697C38.9149 157.715 37.8764 159.177 37.3826 160.852V160.852Z" fill="#2E353D"/>
<path d="M50.631 159.208C47.4398 158 45.4211 156.21 44.6474 153.95C44.3425 152.927 44.2463 151.853 44.3647 150.792C44.483 149.73 44.8135 148.704 45.3364 147.773L45.82 148.063C45.3389 148.924 45.0335 149.871 44.9214 150.85C44.8094 151.83 44.8929 152.822 45.1672 153.769C45.8925 155.872 47.7903 157.528 50.8244 158.689L50.631 159.208Z" fill="#2E353D"/>
<path d="M33.7078 158.652L33.2001 158.519C34.6174 153.576 37.8063 149.329 42.1573 146.588L42.4232 147.072C38.1911 149.727 35.0876 153.85 33.7078 158.652Z" fill="#2E353D"/>
<path d="M172.454 187.265C172.454 187.265 168.042 188.739 166.567 190.891L165.358 189.682C167.615 188.587 169.998 187.775 172.454 187.265Z" fill="#2E353D"/>
</g>
<path d="M141.34 133.78H138.68L138.21 135H135.81L138.87 128H141.19L144.25 135H141.81L141.34 133.78ZM140.69 132.08L140.01 130.32L139.33 132.08H140.69ZM150.227 131.34C150.64 131.493 150.96 131.717 151.187 132.01C151.413 132.303 151.527 132.657 151.527 133.07C151.527 133.683 151.273 134.16 150.767 134.5C150.26 134.833 149.527 135 148.567 135H144.627V128H148.367C149.3 128 150.003 128.167 150.477 128.5C150.957 128.833 151.197 129.277 151.197 129.83C151.197 130.157 151.113 130.45 150.947 130.71C150.787 130.97 150.547 131.18 150.227 131.34ZM146.947 129.65V130.69H148.047C148.56 130.69 148.817 130.517 148.817 130.17C148.817 129.823 148.56 129.65 148.047 129.65H146.947ZM148.367 133.35C148.887 133.35 149.147 133.167 149.147 132.8C149.147 132.433 148.887 132.25 148.367 132.25H146.947V133.35H148.367ZM156.031 135.16C155.278 135.16 154.601 135.003 154.001 134.69C153.401 134.377 152.931 133.943 152.591 133.39C152.251 132.83 152.081 132.2 152.081 131.5C152.081 130.8 152.251 130.173 152.591 129.62C152.931 129.06 153.401 128.623 154.001 128.31C154.601 127.997 155.278 127.84 156.031 127.84C156.784 127.84 157.461 127.997 158.061 128.31C158.661 128.623 159.131 129.06 159.471 129.62C159.811 130.173 159.981 130.8 159.981 131.5C159.981 132.2 159.811 132.83 159.471 133.39C159.131 133.943 158.661 134.377 158.061 134.69C157.461 135.003 156.784 135.16 156.031 135.16ZM156.031 133.25C156.324 133.25 156.588 133.18 156.821 133.04C157.061 132.893 157.251 132.69 157.391 132.43C157.531 132.163 157.601 131.853 157.601 131.5C157.601 131.147 157.531 130.84 157.391 130.58C157.251 130.313 157.061 130.11 156.821 129.97C156.588 129.823 156.324 129.75 156.031 129.75C155.738 129.75 155.471 129.823 155.231 129.97C154.998 130.11 154.811 130.313 154.671 130.58C154.531 130.84 154.461 131.147 154.461 131.5C154.461 131.853 154.531 132.163 154.671 132.43C154.811 132.69 154.998 132.893 155.231 133.04C155.471 133.18 155.738 133.25 156.031 133.25ZM164.188 135.16C163.114 135.16 162.278 134.87 161.678 134.29C161.078 133.71 160.778 132.897 160.778 131.85V128H163.138V131.78C163.138 132.293 163.228 132.667 163.408 132.9C163.594 133.133 163.861 133.25 164.208 133.25C164.554 133.25 164.818 133.133 164.998 132.9C165.184 132.667 165.278 132.293 165.278 131.78V128H167.598V131.85C167.598 132.897 167.298 133.71 166.698 134.29C166.098 134.87 165.261 135.16 164.188 135.16ZM170.102 129.83H168.052V128H174.512V129.83H172.462V135H170.102V129.83Z" fill="black"/>
<path d="M151.411 156L151.36 147.856L147.48 154.392H144.825L140.944 148.137V156H135.455V138.129H140.408L146.229 147.652L151.897 138.129H156.849L156.9 156H151.411ZM174.672 151.456V156H159.813V138.129H174.34V142.673H165.736V144.767H173.293V149.107H165.736V151.456H174.672Z" fill="black"/>
</g>
<defs>
<filter id="filter0_d" x="0" y="0" width="258.575" height="443.499" filterUnits="userSpaceOnUse" color-interpolation-filters="sRGB">
<feFlood flood-opacity="0" result="BackgroundImageFix"/>
<feColorMatrix in="SourceAlpha" type="matrix" values="0 0 0 0 0 0 0 0 0 0 0 0 0 0 0 0 0 0 127 0" result="hardAlpha"/>
<feOffset dy="4"/>
<feGaussianBlur stdDeviation="4.5"/>
<feComposite in2="hardAlpha" operator="out"/>
<feColorMatrix type="matrix" values="0 0 0 0 0 0 0 0 0 0 0 0 0 0 0 0 0 0 0.25 0"/>
<feBlend mode="normal" in2="BackgroundImageFix" result="effect1_dropShadow"/>
<feBlend mode="normal" in="SourceGraphic" in2="effect1_dropShadow" result="shape"/>
</filter>
<filter id="filter1_d" x="0" y="0" width="258.575" height="443.499" filterUnits="userSpaceOnUse" color-interpolation-filters="sRGB">
<feFlood flood-opacity="0" result="BackgroundImageFix"/>
<feColorMatrix in="SourceAlpha" type="matrix" values="0 0 0 0 0 0 0 0 0 0 0 0 0 0 0 0 0 0 127 0" result="hardAlpha"/>
<feOffset dy="4"/>
<feGaussianBlur stdDeviation="4.5"/>
<feComposite in2="hardAlpha" operator="out"/>
<feColorMatrix type="matrix" values="0 0 0 0 0 0 0 0 0 0 0 0 0 0 0 0 0 0 0.25 0"/>
<feBlend mode="normal" in2="BackgroundImageFix" result="effect1_dropShadow"/>
<feBlend mode="normal" in="SourceGraphic" in2="effect1_dropShadow" result="shape"/>
</filter>
</defs>
</svg>
