<svg width="28" height="31" viewBox="0 0 28 31" fill="none" xmlns="http://www.w3.org/2000/svg">
<path d="M11.3079 13.0352H16.7582V8.97086C15.9014 7.91129 12.2714 8.00756 11.3079 8.97086V13.0352Z" fill="#00FFF0"/>
<path d="M26.305 4.1591C22.5898 1.95701 18.3507 0.795044 14.0319 0.795044C9.7132 0.795044 5.474 1.95701 1.75886 4.1591C1.10133 6.23633 0.740784 8.95004 0.740784 11.2864C0.740784 19.4212 5.0931 26.8451 11.3078 29.9331C12.1828 30.3684 13.0945 30.7253 14.0324 31C14.9708 30.7255 15.8829 30.3682 16.7581 29.9325C22.9716 26.8449 27.3252 19.4208 27.3252 11.2864C27.325 8.95004 26.9615 6.23633 26.305 4.1591ZM18.2005 22.3588L16.7581 26.8642V15.7618C15.9013 14.7014 12.2713 14.7981 11.3078 15.7618V26.8642L9.86564 22.353C7.29971 19.5528 5.41276 15.5946 5.41276 11.2864C5.41172 10.1156 5.52812 8.94756 5.76023 7.79993C8.34733 6.58036 11.1721 5.94796 14.0323 5.94796C16.8924 5.94796 19.7172 6.58036 22.3043 7.79993C22.5373 8.94744 22.6544 10.1155 22.6538 11.2864C22.6534 15.5975 20.7693 19.558 18.2005 22.3588Z" fill="#00FFF0"/>
</svg>
