<svg width="26" height="23" viewBox="0 0 26 23" fill="none" xmlns="http://www.w3.org/2000/svg">
<path d="M23.4 10.3256H20.8V8.61704C20.8 4.37765 17.3008 0.928467 13 0.928467C8.69917 0.928467 5.2 4.37765 5.2 8.61704V10.3256H2.6C1.91068 10.3264 1.24982 10.5967 0.762393 11.0771C0.27497 11.5576 0.000788492 12.209 0 12.8885V19.7228C0.000788492 20.4022 0.27497 21.0536 0.762393 21.5341C1.24982 22.0146 1.91068 22.2848 2.6 22.2856H5.2C5.65955 22.2851 6.10013 22.1049 6.42508 21.7846C6.75003 21.4643 6.93282 21.03 6.93333 20.577V8.61704C6.93333 7.03104 7.5725 5.51001 8.71022 4.38854C9.84794 3.26707 11.391 2.63704 13 2.63704C14.609 2.63704 16.1521 3.26707 17.2898 4.38854C18.4275 5.51001 19.0667 7.03104 19.0667 8.61704V20.577C19.0672 21.03 19.25 21.4643 19.5749 21.7846C19.8999 22.1049 20.3405 22.2851 20.8 22.2856H23.4C24.0893 22.2848 24.7502 22.0146 25.2376 21.5341C25.725 21.0536 25.9992 20.4022 26 19.7228V12.8885C25.9992 12.209 25.725 11.5576 25.2376 11.0771C24.7502 10.5967 24.0893 10.3264 23.4 10.3256V10.3256ZM5.2 20.577H2.6C2.37023 20.5768 2.14995 20.4867 1.98747 20.3265C1.825 20.1664 1.73361 19.9492 1.73333 19.7228V12.8885C1.73361 12.662 1.825 12.4448 1.98747 12.2847C2.14995 12.1245 2.37023 12.0344 2.6 12.0342H5.2V15.0242H5.20043L5.20108 20.577H5.2ZM24.2667 19.7228C24.2664 19.9492 24.175 20.1664 24.0125 20.3265C23.8501 20.4867 23.6298 20.5768 23.4 20.577H20.8V12.0342H23.4C23.6298 12.0344 23.8501 12.1245 24.0125 12.2847C24.175 12.4448 24.2664 12.662 24.2667 12.8885V19.7228Z" fill="black"/>
</svg>
