<svg width="22" height="20" viewBox="0 0 22 20" fill="none" xmlns="http://www.w3.org/2000/svg">
<path d="M19.8 0H2.2C0.986698 0 0 0.986698 0 2.2V17.6C0 18.8133 0.986698 19.8 2.2 19.8H19.8C21.0133 19.8 22 18.8133 22 17.6V2.2C22 0.986698 21.0133 0 19.8 0ZM19.8011 6.59999C19.8 6.59999 19.8 6.59999 19.8011 6.59999H19.2896L16.3559 2.2H19.8L19.8011 6.59999ZM8.28958 6.59999L5.35589 2.2H8.21148L11.1452 6.59999H8.28958ZM13.7896 6.59999L10.8559 2.2H13.7115L16.6452 6.59999H13.7896V6.59999ZM2.2 2.2H2.71149L5.64519 6.59999H2.2V2.2ZM2.2 17.6V8.79998H19.8L19.8022 17.6H2.2Z" fill="black"/>
<path d="M8.79999 16.4999L14.85 13.2L8.79999 9.89996V16.4999Z" fill="black"/>
</svg>
